<?xml version="1.0" encoding="UTF-8" standalone="no"?>
<svg
   version="1.1"
   id="Layer_1"
   x="0px"
   y="0px"
   width="2900.2322"
   viewBox="0 0 2900.2322 442.05395"
   enable-background="new 0 0 1024 1024"
   xml:space="preserve"
   sodipodi:docname="logo.svg"
   height="442.05396"
   inkscape:version="1.3.2 (1:1.3.2+202311252150+091e20ef0f)"
   xmlns:inkscape="http://www.inkscape.org/namespaces/inkscape"
   xmlns:sodipodi="http://sodipodi.sourceforge.net/DTD/sodipodi-0.dtd"
   xmlns="http://www.w3.org/2000/svg"
   xmlns:svg="http://www.w3.org/2000/svg"><defs
   id="defs86" /><sodipodi:namedview
   id="namedview86"
   pagecolor="#ffffff"
   bordercolor="#666666"
   borderopacity="1.0"
   inkscape:showpageshadow="2"
   inkscape:pageopacity="0.0"
   inkscape:pagecheckerboard="0"
   inkscape:deskcolor="#d1d1d1"
   inkscape:zoom="0.41894531"
   inkscape:cx="1503.7762"
   inkscape:cy="348.49417"
   inkscape:window-width="1920"
   inkscape:window-height="1016"
   inkscape:window-x="0"
   inkscape:window-y="27"
   inkscape:window-maximized="1"
   inkscape:current-layer="Layer_1" />






















































































<g
   id="text86"
   style="font-size:129.128px;font-family:'CMU Serif';-inkscape-font-specification:'CMU Serif, Normal';letter-spacing:0px;word-spacing:0px;fill:#ffffff;stroke-width:8.07238"
   aria-label="Centro per le &#10;Politiche sulle &#10;Tecnologie Emergenti"><path
     d="m 1697.9256,47.67583 q 0,-19.498329 13.3002,-33.185897 13.3002,-13.68756888 31.6364,-13.68756888 5.6816,0 10.7176,2.06604808 5.036,2.0660481 7.3603,3.8738402 2.3243,1.8077921 5.6816,5.1651206 l 6.4564,-9.5554728 q 1.033,-1.54953608 2.0661,-1.54953608 1.033,0 1.1621,0.64564008 0.2583,0.516512 0.2583,2.4534321 V 34.504774 q 0,2.066048 -0.2583,2.58256 -0.2582,0.516512 -1.8078,0.516512 -1.2912,0 -1.5495,-0.387384 -0.2583,-0.387384 -0.5165,-1.807792 -1.9369,-13.945825 -9.6846,-22.210017 -7.7477,-8.3933207 -18.4653,-8.3933207 -3.0991,0 -6.5855,0.774768 -3.3574,0.6456401 -8.3934,3.3573282 -4.9068,2.5825605 -8.7807,6.9729125 -3.7447,4.390352 -6.5855,12.654544 -2.7117,8.264193 -2.7117,19.240073 0,10.846753 2.7117,19.240073 2.8408,8.264193 6.5855,12.654545 3.8739,4.261224 8.7807,6.972912 5.036,2.58256 8.5225,3.357328 3.4864,0.64564 6.5855,0.64564 11.105,0 19.6275,-7.876808 8.5224,-7.876808 9.2972,-21.176993 0.1291,-0.64564 0.1291,-0.903896 0,-0.258256 0.1291,-0.516512 0.1292,-0.387384 0.3874,-0.516512 0.3874,-0.129128 0.9039,-0.129128 1.6787,0 1.6787,2.195176 0,12.267161 -9.4264,22.597401 -9.4263,10.33024 -24.276,10.33024 -18.3362,0 -31.6364,-13.55844 -13.3002,-13.687569 -13.3002,-33.444154 z m 89.6146,15.753617 q 0,-12.138033 7.7477,-20.789609 7.8768,-8.651576 19.111,-8.651576 11.3632,0 17.174,7.360296 5.9399,7.360296 5.9399,17.948793 0,1.93692 -0.5165,2.324304 -0.5166,0.387384 -2.7117,0.387384 h -36.0267 q 0,13.171057 3.8738,19.369201 5.4234,8.651576 14.5915,8.651576 1.2912,0 2.7116,-0.258256 1.5496,-0.258256 4.6487,-1.29128 3.099,-1.162152 5.8107,-4.132096 2.7117,-2.969944 4.2612,-7.618552 0.3874,-1.807792 1.6787,-1.807792 1.6787,0 1.6787,1.549536 0,1.162152 -1.2913,3.744712 -1.1622,2.453432 -3.4865,5.552504 -2.3243,2.969944 -6.8438,5.294248 -4.5194,2.195176 -9.9428,2.195176 -11.3633,0 -19.8857,-8.522448 -8.5225,-8.651576 -8.5225,-21.306121 z m 10.8468,-4.132096 h 30.6033 q 0,-2.711688 -0.5165,-5.681632 -0.3874,-3.099073 -1.8078,-7.231169 -1.2913,-4.261224 -4.5195,-6.843784 -3.099,-2.711688 -7.7476,-2.711688 -2.0661,0 -4.3904,0.903896 -2.1952,0.903896 -4.9069,3.099072 -2.7117,2.066048 -4.6486,6.972912 -1.8078,4.777737 -2.066,11.492393 z m 47.0024,32.540257 V 87.83464 q 6.8437,0 8.3933,-0.774768 1.6786,-0.903896 1.6786,-5.035992 V 47.417574 q 0,-4.777736 -1.6786,-5.939888 -1.6787,-1.29128 -8.3933,-1.29128 v -4.002968 l 18.207,-1.420408 v 13.55844 q 6.069,-13.55844 19.111,-13.55844 9.6846,0 13.5584,4.777736 2.8408,3.2282 3.3573,6.843784 0.6457,3.615584 0.6457,12.912801 V 83.9608 q 0.1291,2.711688 2.1951,3.357328 2.0661,0.516512 7.8768,0.516512 v 4.002968 q -13.171,-0.387384 -14.4623,-0.387384 -1.033,0 -14.5915,0.387384 V 87.83464 q 6.8438,0 8.3934,-0.774768 1.6786,-0.903896 1.6786,-5.035992 V 51.937054 q 0,-6.585528 -2.066,-10.459368 -1.9369,-3.87384 -7.4894,-3.87384 -6.7147,0 -12.1381,5.681632 -5.2942,5.552504 -5.2942,14.978849 V 82.02388 q 0,4.132096 1.5495,5.035992 1.6787,0.774768 8.5225,0.774768 v 4.002968 q -13.1711,-0.387384 -14.4624,-0.387384 -1.033,0 -14.5914,0.387384 z m 66.3713,-51.651202 V 37.34559 q 5.9399,-0.258256 9.8137,-4.390352 4.003,-4.261225 5.2943,-9.426345 1.4204,-5.16512 1.5495,-11.105008 h 3.2282 v 23.759553 h 18.4653 v 4.002968 h -18.4653 v 35.897586 q 0,13.945824 8.6516,13.945824 3.7447,0 6.1981,-3.744712 2.4535,-3.87384 2.4535,-10.717624 v -7.102041 h 3.2282 v 7.360297 q 0,6.972912 -3.2282,12.26716 -3.2282,5.16512 -9.5555,5.16512 -2.3243,0 -4.6486,-0.64564 -2.3243,-0.516512 -5.2942,-2.066048 -2.97,-1.549536 -4.9069,-5.294248 -1.8078,-3.87384 -1.8078,-9.426344 v -35.63933 z m 51.2636,51.651202 V 87.83464 q 6.8438,0 8.3934,-0.774768 1.6786,-0.903896 1.6786,-5.035992 V 47.417574 q 0,-4.777736 -1.6786,-5.939888 -1.6787,-1.29128 -8.3934,-1.29128 v -4.002968 l 17.9488,-1.420408 v 14.20408 q 1.8078,-5.552504 5.6817,-9.813728 3.8738,-4.390352 10.2011,-4.390352 4.1321,0 6.8438,2.324304 2.7116,2.324304 2.7116,5.552504 0,2.840816 -1.8077,4.261224 -1.6787,1.420408 -3.7448,1.420408 -2.3243,0 -4.0029,-1.420408 -1.5496,-1.549536 -1.5496,-4.132096 0,-1.549536 0.6457,-2.711688 0.7747,-1.29128 1.2913,-1.678664 0.6456,-0.516512 1.033,-0.64564 -0.2583,-0.129128 -1.4204,-0.129128 -7.1021,0 -11.2342,7.10204 -4.0029,7.10204 -4.0029,17.174025 v 19.885713 q 0,3.744712 1.5495,4.906864 1.5495,1.162152 8.2642,1.162152 h 2.7117 v 4.002968 q -5.1651,-0.387384 -16.3993,-0.387384 -1.5495,0 -4.0029,0.129128 -2.4535,0 -5.6817,0.129128 -3.2282,0.129128 -5.036,0.129128 z m 59.0114,-6.972912 q -8.5224,-8.39332 -8.5224,-20.660481 0,-12.267161 8.2642,-21.176993 8.3933,-9.03896 20.4022,-9.03896 11.7506,0 20.1439,8.909832 8.3934,8.909832 8.3934,21.306121 0,12.138033 -8.5225,20.660481 -8.3933,8.39332 -20.144,8.39332 -11.4923,0 -20.0148,-8.39332 z m 2.1952,-21.693505 q 0,12.525417 3.2282,18.207049 5.036,8.651576 14.7206,8.651576 4.7777,0 8.7807,-2.58256 4.0029,-2.58256 6.1981,-6.972912 2.8408,-5.681632 2.8408,-17.303153 0,-12.396289 -3.3573,-17.948793 -5.036,-8.39332 -14.5915,-8.39332 -4.132,0 -8.2641,2.195176 -4.003,2.195176 -6.4564,6.4564 -3.0991,5.681632 -3.0991,17.690537 z m 96.8455,49.714279 q 6.8438,0 8.3933,-0.90389 1.6787,-0.77477 1.6787,-4.90687 V 46.642806 q 0,-4.261224 -1.6787,-5.294248 -1.5495,-1.162152 -8.3933,-1.162152 v -4.002968 l 18.5944,-1.420408 v 8.522448 q 7.7477,-8.522448 18.078,-8.522448 10.9758,0 18.9818,8.522448 8.0059,8.522448 8.0059,20.660481 0,12.267161 -8.5224,20.789609 -8.5225,8.522448 -20.2731,8.522448 -6.4564,0 -10.8468,-3.2282 -4.2612,-3.357328 -5.036,-5.81076 v 1.162152 21.693502 q 0,4.1321 1.5496,4.90687 1.6786,0.90389 8.5224,0.90389 v 4.00297 q -13.5584,-0.38738 -14.5915,-0.38738 -1.2912,0 -14.4623,0.38738 z m 18.9818,-35.768454 q 0,1.93692 0.2583,2.711688 0.2582,0.64564 1.5495,2.711688 5.1651,7.876808 13.5584,7.876808 7.3603,0 12.9128,-7.489424 5.6817,-7.618552 5.6817,-18.981817 0,-10.846752 -5.1651,-18.336177 -5.036,-7.618552 -12.1381,-7.618552 -5.036,0 -9.4263,2.711688 -4.3904,2.711688 -7.2312,7.618552 z m 56.2996,-13.687569 q 0,-12.138033 7.7477,-20.789609 7.8768,-8.651576 19.1109,-8.651576 11.3633,0 17.1741,7.360296 5.9398,7.360296 5.9398,17.948793 0,1.93692 -0.5165,2.324304 -0.5165,0.387384 -2.7117,0.387384 h -36.0267 q 0,13.171057 3.8739,19.369201 5.4233,8.651576 14.5914,8.651576 1.2913,0 2.7117,-0.258256 1.5496,-0.258256 4.6486,-1.29128 3.0991,-1.162152 5.8108,-4.132096 2.7117,-2.969944 4.2612,-7.618552 0.3874,-1.807792 1.6787,-1.807792 1.6786,0 1.6786,1.549536 0,1.162152 -1.2912,3.744712 -1.1622,2.453432 -3.4865,5.552504 -2.3243,2.969944 -6.8438,5.294248 -4.5195,2.195176 -9.9428,2.195176 -11.3633,0 -19.8857,-8.522448 -8.5225,-8.651576 -8.5225,-21.306121 z m 10.8468,-4.132096 h 30.6033 q 0,-2.711688 -0.5165,-5.681632 -0.3874,-3.099073 -1.8078,-7.231169 -1.2913,-4.261224 -4.5195,-6.843784 -3.0991,-2.711688 -7.7477,-2.711688 -2.066,0 -4.3903,0.903896 -2.1952,0.903896 -4.9069,3.099072 -2.7117,2.066048 -4.6486,6.972912 -1.8078,4.777737 -2.066,11.492393 z m 46.4858,32.540257 V 87.83464 q 6.8438,0 8.3933,-0.774768 1.6787,-0.903896 1.6787,-5.035992 V 47.417574 q 0,-4.777736 -1.6787,-5.939888 -1.6786,-1.29128 -8.3933,-1.29128 v -4.002968 l 17.9488,-1.420408 v 14.20408 q 1.8078,-5.552504 5.6816,-9.813728 3.8739,-4.390352 10.2012,-4.390352 4.132,0 6.8437,2.324304 2.7117,2.324304 2.7117,5.552504 0,2.840816 -1.8078,4.261224 -1.6786,1.420408 -3.7447,1.420408 -2.3243,0 -4.0029,-1.420408 -1.5496,-1.549536 -1.5496,-4.132096 0,-1.549536 0.6457,-2.711688 0.7747,-1.29128 1.2912,-1.678664 0.6457,-0.516512 1.0331,-0.64564 -0.2583,-0.129128 -1.4204,-0.129128 -7.1021,0 -11.2342,7.10204 -4.003,7.10204 -4.003,17.174025 v 19.885713 q 0,3.744712 1.5496,4.906864 1.5495,1.162152 8.2642,1.162152 h 2.7117 v 4.002968 q -5.1652,-0.387384 -16.3993,-0.387384 -1.5495,0 -4.003,0.129128 -2.4534,0 -5.6816,0.129128 -3.2282,0.129128 -5.036,0.129128 z m 94.134,0 V 87.83464 q 6.8438,0 8.3933,-0.774768 1.6787,-0.903896 1.6787,-5.035992 V 14.877317 q 0,-4.777736 -1.6787,-5.9398885 -1.6786,-1.2912801 -8.3933,-1.2912801 V 3.6431803 l 18.5944,-1.4204081 V 82.02388 q 0,4.132096 1.5496,5.035992 1.6786,0.774768 8.5224,0.774768 v 4.002968 q -1.5495,0 -4.9069,-0.129128 -3.2282,-0.129128 -5.6816,-0.129128 -2.3243,-0.129128 -3.7447,-0.129128 -1.5495,0 -14.3332,0.387384 z m 35.1226,-28.408161 q 0,-12.138033 7.7477,-20.789609 7.8768,-8.651576 19.1109,-8.651576 11.3633,0 17.1741,7.360296 5.9398,7.360296 5.9398,17.948793 0,1.93692 -0.5165,2.324304 -0.5165,0.387384 -2.7117,0.387384 h -36.0267 q 0,13.171057 3.8739,19.369201 5.4233,8.651576 14.5914,8.651576 1.2913,0 2.7117,-0.258256 1.5496,-0.258256 4.6486,-1.29128 3.0991,-1.162152 5.8108,-4.132096 2.7117,-2.969944 4.2612,-7.618552 0.3874,-1.807792 1.6787,-1.807792 1.6786,0 1.6786,1.549536 0,1.162152 -1.2912,3.744712 -1.1622,2.453432 -3.4865,5.552504 -2.3243,2.969944 -6.8438,5.294248 -4.5195,2.195176 -9.9428,2.195176 -11.3633,0 -19.8857,-8.522448 -8.5225,-8.651576 -8.5225,-21.306121 z m 10.8468,-4.132096 h 30.6033 q 0,-2.711688 -0.5165,-5.681632 -0.3874,-3.099073 -1.8078,-7.231169 -1.2913,-4.261224 -4.5195,-6.843784 -3.0991,-2.711688 -7.7477,-2.711688 -2.066,0 -4.3903,0.903896 -2.1952,0.903896 -4.9069,3.099072 -2.7117,2.066048 -4.6486,6.972912 -1.8078,4.777737 -2.066,11.492393 z"
     id="path1" /><path
     d="m 1695.2139,253.24762 v -4.00297 h 3.0991 q 6.9729,0 8.5225,-1.16215 1.6786,-1.16216 1.6786,-4.90687 v -68.05046 q 0,-3.74471 -1.6786,-4.90686 -1.5496,-1.16215 -8.5225,-1.16215 h -3.0991 v -4.00297 h 45.5822 q 13.042,0 21.6935,7.23117 8.7807,7.10204 8.7807,16.78664 0,9.55547 -8.9098,16.52838 -8.7807,6.84379 -20.5314,6.84379 h -21.8226 v 30.73246 q 0,3.74471 1.5496,4.90687 1.6786,1.16215 8.6515,1.16215 h 3.0991 v 4.00297 q -4.5195,-0.38739 -19.1109,-0.38739 -14.4624,0 -18.9819,0.38739 z m 24.4052,-44.16178 h 17.8197 q 5.8108,0 9.9429,-1.54954 4.2612,-1.67866 6.1981,-3.61558 1.9369,-2.06605 2.9699,-5.29425 1.1622,-3.2282 1.2913,-5.03599 0.1291,-1.8078 0.1291,-4.51948 0,-2.84082 -0.1291,-4.64861 -0.1291,-1.80779 -1.2913,-5.03599 -1.033,-3.2282 -2.9699,-5.16512 -1.9369,-2.06605 -6.1981,-3.61559 -4.1321,-1.54953 -9.9429,-1.54953 h -11.4924 q -4.3903,0 -5.4234,0.90389 -0.9039,0.9039 -0.9039,4.26123 z m 67.4044,37.18886 q -8.5224,-8.39332 -8.5224,-20.66048 0,-12.26716 8.2642,-21.17699 8.3933,-9.03896 20.4022,-9.03896 11.7506,0 20.144,8.90983 8.3933,8.90983 8.3933,21.30612 0,12.13804 -8.5225,20.66048 -8.3933,8.39332 -20.1439,8.39332 -11.4924,0 -20.0149,-8.39332 z m 2.1952,-21.6935 q 0,12.52542 3.2282,18.20705 5.036,8.65157 14.7206,8.65157 4.7777,0 8.7807,-2.58256 4.003,-2.58256 6.1981,-6.97291 2.8408,-5.68163 2.8408,-17.30315 0,-12.39629 -3.3573,-17.94879 -5.036,-8.39332 -14.5914,-8.39332 -4.1321,0 -8.2642,2.19517 -4.003,2.19518 -6.4564,6.4564 -3.0991,5.68163 -3.0991,17.69054 z m 54.4918,28.66642 v -4.00297 q 6.8438,0 8.3933,-0.77477 1.6787,-0.9039 1.6787,-5.03599 v -67.14657 q 0,-4.77773 -1.6787,-5.93988 -1.6787,-1.29128 -8.3933,-1.29128 v -4.00297 l 18.5944,-1.42041 v 79.80111 q 0,4.13209 1.5495,5.03599 1.6787,0.77477 8.5225,0.77477 v 4.00297 q -1.5495,0 -4.9069,-0.12913 -3.2282,-0.12913 -5.6816,-0.12913 -2.3243,-0.12913 -3.7447,-0.12913 -1.5496,0 -14.3332,0.38739 z m 35.7682,0 v -4.00297 q 6.8438,0 8.3933,-0.77477 1.6787,-0.9039 1.6787,-5.03599 v -34.73544 q 0,-4.77773 -1.6787,-5.93988 -1.5495,-1.16216 -7.8768,-1.16216 v -4.00296 l 18.078,-1.42041 v 47.38998 q 0,3.87384 1.2912,4.77773 1.4204,0.9039 7.7477,0.9039 v 4.00297 q -13.171,-0.38739 -13.4293,-0.38739 -1.8078,0 -14.2041,0.38739 z m 5.4234,-79.54286 q 0,-2.58256 1.9369,-4.6486 2.0661,-2.19518 4.9069,-2.19518 2.8408,0 4.7777,1.93692 2.0661,1.93692 2.0661,4.90686 0,2.96995 -2.0661,4.90687 -1.9369,1.93692 -4.7777,1.93692 -2.97,0 -4.9069,-2.06605 -1.9369,-2.06605 -1.9369,-4.77774 z m 28.5371,27.89165 v -2.84081 q 5.9399,-0.25826 9.8137,-4.39035 4.003,-4.26123 5.2943,-9.42635 1.4204,-5.16512 1.5495,-11.10501 h 3.2282 v 23.75956 h 18.4653 v 4.00296 h -18.4653 V 237.494 q 0,13.94582 8.6516,13.94582 3.7447,0 6.1981,-3.74471 2.4535,-3.87384 2.4535,-10.71762 v -7.10204 h 3.2282 v 7.36029 q 0,6.97292 -3.2282,12.26716 -3.2282,5.16512 -9.5555,5.16512 -2.3243,0 -4.6486,-0.64564 -2.3243,-0.51651 -5.2943,-2.06604 -2.9699,-1.54954 -4.9068,-5.29425 -1.8078,-3.87384 -1.8078,-9.42635 v -35.63933 z m 51.9093,51.65121 v -4.00297 q 6.8438,0 8.3933,-0.77477 1.6787,-0.9039 1.6787,-5.03599 v -34.73544 q 0,-4.77773 -1.6787,-5.93988 -1.5495,-1.16216 -7.8768,-1.16216 v -4.00296 l 18.0779,-1.42041 v 47.38998 q 0,3.87384 1.2913,4.77773 1.4204,0.9039 7.7477,0.9039 v 4.00297 q -13.1711,-0.38739 -13.4293,-0.38739 -1.8078,0 -14.2041,0.38739 z m 5.4234,-79.54286 q 0,-2.58256 1.9369,-4.6486 2.066,-2.19518 4.9068,-2.19518 2.8409,0 4.7778,1.93692 2.066,1.93692 2.066,4.90686 0,2.96995 -2.066,4.90687 -1.9369,1.93692 -4.7778,1.93692 -2.9699,0 -4.9068,-2.06605 -1.9369,-2.06605 -1.9369,-4.77774 z m 38.609,72.44082 q -8.135,-8.52245 -8.135,-20.78961 0,-12.26716 8.0059,-21.04787 8.1351,-8.90983 20.0149,-8.90983 7.8768,0 13.8167,3.74471 5.9398,3.74471 5.9398,10.07199 0,2.84081 -1.6786,4.51948 -1.6787,1.54953 -4.2612,1.54953 -2.7117,0 -4.3904,-1.67866 -1.5495,-1.67867 -1.5495,-4.26123 0,-1.16215 0.3874,-2.19517 0.3873,-1.16215 1.8077,-2.32431 1.4205,-1.29128 3.8739,-1.4204 -4.6486,-4.77774 -13.8167,-4.77774 -6.5855,0 -12.0089,6.19814 -5.4234,6.19815 -5.4234,20.2731 0,7.3603 1.8078,12.78367 1.8078,5.42338 4.7777,8.2642 2.97,2.71168 5.8108,4.00296 2.9699,1.29128 5.8108,1.29128 12.6545,0 16.9157,-13.55844 0.3874,-1.29128 1.6787,-1.29128 1.6787,0 1.6787,1.29128 0,0.64564 -0.5166,2.32431 -0.5165,1.54953 -2.066,4.13209 -1.5495,2.58256 -3.8738,4.90687 -2.1952,2.19517 -6.1982,3.87384 -3.8738,1.54953 -8.7807,1.54953 -11.3633,0 -19.6275,-8.52244 z m 45.3235,7.10204 v -4.00297 q 6.8438,0 8.3933,-0.77477 1.6787,-0.9039 1.6787,-5.03599 v -67.14657 q 0,-4.77773 -1.6787,-5.93988 -1.6786,-1.29128 -8.3933,-1.29128 v -4.00297 l 18.5945,-1.42041 v 44.93655 h 0.1291 q 2.066,-4.64861 6.7146,-8.52245 4.6486,-3.87384 11.8798,-3.87384 9.6846,0 13.5585,4.77773 2.8408,3.2282 3.3573,6.84379 0.6456,3.61558 0.6456,12.9128 v 24.66345 q 0.1292,2.71169 2.1952,3.35733 2.066,0.51651 7.8768,0.51651 v 4.00297 q -13.171,-0.38739 -14.4623,-0.38739 -1.0331,0 -14.5915,0.38739 v -4.00297 q 6.8438,0 8.3933,-0.77477 1.6787,-0.9039 1.6787,-5.03599 v -30.08683 q 0,-6.58553 -2.0661,-10.45937 -1.9369,-3.87384 -7.4894,-3.87384 -6.7146,0 -12.138,5.68164 -5.2943,5.5525 -5.2943,14.97884 v 23.75956 q 0,4.13209 1.5496,5.03599 1.6786,0.77477 8.5224,0.77477 v 4.00297 q -13.171,-0.38739 -14.4623,-0.38739 -1.033,0 -14.5915,0.38739 z m 71.1493,-28.40817 q 0,-12.13803 7.7477,-20.7896 7.8768,-8.65158 19.111,-8.65158 11.3632,0 17.174,7.3603 5.9399,7.36029 5.9399,17.94879 0,1.93692 -0.5165,2.3243 -0.5165,0.38739 -2.7117,0.38739 h -36.0267 q 0,13.17105 3.8738,19.3692 5.4234,8.65157 14.5915,8.65157 1.2913,0 2.7117,-0.25825 1.5495,-0.25826 4.6486,-1.29128 3.099,-1.16215 5.8107,-4.1321 2.7117,-2.96994 4.2613,-7.61855 0.3873,-1.80779 1.6786,-1.80779 1.6787,0 1.6787,1.54953 0,1.16216 -1.2913,3.74472 -1.1622,2.45343 -3.4865,5.5525 -2.3243,2.96994 -6.8437,5.29425 -4.5195,2.19517 -9.9429,2.19517 -11.3633,0 -19.8857,-8.52244 -8.5225,-8.65158 -8.5225,-21.30613 z m 10.8468,-4.13209 h 30.6033 q 0,-2.71169 -0.5165,-5.68163 -0.3874,-3.09908 -1.8078,-7.23117 -1.2913,-4.26123 -4.5195,-6.84379 -3.099,-2.71168 -7.7476,-2.71168 -2.0661,0 -4.3904,0.90389 -2.1952,0.9039 -4.9068,3.09907 -2.7117,2.06605 -4.6487,6.97292 -1.8077,4.77773 -2.066,11.49239 z m 90.1309,30.86159 v -17.0449 q 0,-1.4204 0,-1.93692 0.1291,-0.51651 0.5165,-0.90389 0.3874,-0.38739 1.1622,-0.38739 0.9039,0 1.1621,0.38739 0.3874,0.38738 0.6457,1.80779 1.9369,8.90983 6.069,13.68757 4.2612,4.64861 11.8798,4.64861 7.2311,0 10.8467,-3.2282 3.7447,-3.2282 3.7447,-8.52245 0,-9.42635 -13.4293,-11.87978 -7.7477,-1.54953 -10.9759,-2.58256 -3.2282,-1.03302 -6.069,-3.35733 -5.5525,-4.51948 -5.5525,-10.97588 0,-6.4564 4.9069,-11.105 4.9068,-4.77774 15.7536,-4.77774 7.2312,0 12.138,3.61558 1.4204,-1.16215 2.1952,-2.06604 1.6787,-1.54954 2.5826,-1.54954 1.033,0 1.1621,0.64564 0.2583,0.64564 0.2583,2.45343 v 13.04193 q 0,1.42041 -0.1292,1.93692 0,0.51651 -0.3873,0.9039 -0.3874,0.25825 -1.1622,0.25825 -1.4204,0 -1.5495,-1.16215 -1.0331,-15.62449 -15.108,-15.62449 -7.6186,0 -11.105,2.96995 -3.3573,2.84081 -3.3573,6.84378 0,2.19518 1.033,3.87384 1.033,1.67866 2.3243,2.71169 1.4204,0.90389 3.8738,1.80779 2.5826,0.9039 4.1321,1.29128 1.5496,0.25826 4.5195,0.9039 10.3302,1.93692 14.7206,6.19814 5.4234,5.42338 5.4234,12.26716 0,7.61855 -5.1651,12.78367 -5.1652,5.16512 -15.6245,5.16512 -8.3934,0 -14.2041,-5.5525 -0.7748,0.77477 -1.4204,1.42041 -0.5165,0.64564 -0.7748,0.90389 -0.1291,0.25826 -0.2582,0.38739 0,0.12913 -0.1292,0.25825 -2.5825,2.58256 -3.2282,2.58256 -1.033,0 -1.2913,-0.64564 -0.1291,-0.64564 -0.1291,-2.45343 z m 50.7472,-49.97254 v -4.00296 l 18.9818,-1.42041 v 42.8705 q 0,3.09907 0.2583,4.90686 0.2583,1.80779 1.2913,3.87384 1.033,2.06605 3.4864,3.09907 2.4535,0.9039 6.3273,0.9039 6.9729,0 11.2341,-5.68163 4.3904,-5.81076 4.3904,-14.33321 v -22.98479 q 0,-4.77773 -1.6787,-5.93989 -1.6786,-1.29128 -8.3933,-1.29128 v -4.00296 l 18.9818,-1.42041 v 45.84044 q 0,4.77774 1.6787,6.06902 1.6787,1.16215 8.3933,1.16215 v 4.00297 l -18.5944,1.4204 V 243.0465 q -5.4234,11.62152 -16.6575,11.62152 -5.6817,0 -9.5555,-1.4204 -3.8738,-1.42041 -5.8108,-3.2282 -1.9369,-1.8078 -2.9699,-5.29425 -1.033,-3.48646 -1.1622,-5.55251 -0.1291,-2.19517 -0.1291,-6.32727 v -19.3692 q 0,-8.7807 -1.2913,-10.33024 -1.2912,-1.54954 -8.7807,-1.54954 z m 71.795,51.65121 v -4.00297 q 6.8438,0 8.3933,-0.77477 1.6787,-0.9039 1.6787,-5.03599 v -67.14657 q 0,-4.77773 -1.6787,-5.93988 -1.6787,-1.29128 -8.3933,-1.29128 v -4.00297 l 18.5944,-1.42041 v 79.80111 q 0,4.13209 1.5496,5.03599 1.6786,0.77477 8.5224,0.77477 v 4.00297 q -1.5495,0 -4.9069,-0.12913 -3.2282,-0.12913 -5.6816,-0.12913 -2.3243,-0.12913 -3.7447,-0.12913 -1.5495,0 -14.3332,0.38739 z m 35.7682,0 v -4.00297 q 6.8438,0 8.3934,-0.77477 1.6786,-0.9039 1.6786,-5.03599 v -67.14657 q 0,-4.77773 -1.6786,-5.93988 -1.6787,-1.29128 -8.3934,-1.29128 v -4.00297 l 18.5945,-1.42041 v 79.80111 q 0,4.13209 1.5495,5.03599 1.6787,0.77477 8.5225,0.77477 v 4.00297 q -1.5496,0 -4.9069,-0.12913 -3.2282,-0.12913 -5.6816,-0.12913 -2.3243,-0.12913 -3.7448,-0.12913 -1.5495,0 -14.3332,0.38739 z m 35.1226,-28.40817 q 0,-12.13803 7.7477,-20.7896 7.8768,-8.65158 19.111,-8.65158 11.3632,0 17.174,7.3603 5.9399,7.36029 5.9399,17.94879 0,1.93692 -0.5165,2.3243 -0.5165,0.38739 -2.7117,0.38739 h -36.0267 q 0,13.17105 3.8738,19.3692 5.4234,8.65157 14.5915,8.65157 1.2913,0 2.7117,-0.25825 1.5495,-0.25826 4.6486,-1.29128 3.099,-1.16215 5.8107,-4.1321 2.7117,-2.96994 4.2613,-7.61855 0.3873,-1.80779 1.6786,-1.80779 1.6787,0 1.6787,1.54953 0,1.16216 -1.2913,3.74472 -1.1621,2.45343 -3.4864,5.5525 -2.3244,2.96994 -6.8438,5.29425 -4.5195,2.19517 -9.9429,2.19517 -11.3633,0 -19.8857,-8.52244 -8.5225,-8.65158 -8.5225,-21.30613 z m 10.8468,-4.13209 h 30.6033 q 0,-2.71169 -0.5165,-5.68163 -0.3874,-3.09908 -1.8078,-7.23117 -1.2912,-4.26123 -4.5194,-6.84379 -3.0991,-2.71168 -7.7477,-2.71168 -2.0661,0 -4.3904,0.90389 -2.1952,0.9039 -4.9068,3.09907 -2.7117,2.06605 -4.6487,6.97292 -1.8077,4.77773 -2.066,11.49239 z"
     id="path2" /><path
     d="m 1695.3431,356.29176 2.4534,-29.0538 h 78.8972 l 2.4534,29.0538 h -3.2282 q -0.5165,-5.81076 -1.033,-9.16808 -0.3874,-3.35733 -1.5495,-6.4564 -1.033,-3.2282 -2.4535,-4.77774 -1.2912,-1.54954 -3.8738,-2.71169 -2.5826,-1.29128 -5.9399,-1.54953 -3.3573,-0.38739 -8.3933,-0.38739 -5.9399,0 -7.3603,0.25826 -1.5495,0.38738 -1.9369,1.54953 -0.3874,1.03303 -0.3874,3.35733 v 68.05046 q 0,2.58256 0.5165,3.61558 0.5165,1.03303 3.4865,1.8078 2.9699,0.77477 9.5554,0.77477 h 5.1652 v 4.00296 q -5.2943,-0.38738 -24.5344,-0.38738 -19.1109,0 -24.4052,0.38738 v -4.00296 h 5.1652 q 6.5855,0 9.5554,-0.77477 2.97,-0.77477 3.4865,-1.8078 0.5165,-1.03302 0.5165,-3.61558 v -68.05046 q 0,-1.80779 -0.1291,-2.58256 -0.1291,-0.77477 -0.7748,-1.42041 -0.5165,-0.64564 -1.8078,-0.90389 -1.2913,-0.25826 -6.9729,-0.25826 -5.036,0 -8.3933,0.38739 -3.3573,0.25825 -5.9399,1.54953 -2.5826,1.16215 -4.003,2.71169 -1.2912,1.54954 -2.4534,4.77774 -1.033,3.09907 -1.5495,6.4564 -0.3874,3.35732 -0.9039,9.16808 z m 81.4795,29.9577 q 0,-12.13803 7.7477,-20.78961 7.8768,-8.65157 19.1109,-8.65157 11.3633,0 17.174,7.36029 5.9399,7.3603 5.9399,17.9488 0,1.93692 -0.5165,2.3243 -0.5165,0.38738 -2.7117,0.38738 h -36.0267 q 0,13.17106 3.8738,19.3692 5.4234,8.65158 14.5915,8.65158 1.2913,0 2.7117,-0.25825 1.5495,-0.25826 4.6486,-1.29128 3.0991,-1.16216 5.8108,-4.1321 2.7117,-2.96995 4.2612,-7.61855 0.3874,-1.8078 1.6787,-1.8078 1.6786,0 1.6786,1.54954 0,1.16215 -1.2913,3.74471 -1.1621,2.45343 -3.4864,5.55251 -2.3243,2.96994 -6.8438,5.29425 -4.5195,2.19517 -9.9429,2.19517 -11.3632,0 -19.8857,-8.52245 -8.5224,-8.65157 -8.5224,-21.30612 z m 10.8467,-4.13209 h 30.6034 q 0,-2.71169 -0.5165,-5.68164 -0.3874,-3.09907 -1.8078,-7.23116 -1.2913,-4.26123 -4.5195,-6.84379 -3.0991,-2.71169 -7.7477,-2.71169 -2.066,0 -4.3903,0.9039 -2.1952,0.90389 -4.9069,3.09907 -2.7117,2.06605 -4.6486,6.97291 -1.8078,4.77774 -2.0661,11.4924 z m 55.3957,25.43821 q -8.135,-8.52245 -8.135,-20.78961 0,-12.26716 8.0059,-21.04786 8.1351,-8.90983 20.0148,-8.90983 7.8768,0 13.8167,3.74471 5.9399,3.74471 5.9399,10.07198 0,2.84082 -1.6786,4.51948 -1.6787,1.54954 -4.2613,1.54954 -2.7117,0 -4.3903,-1.67866 -1.5496,-1.67867 -1.5496,-4.26123 0,-1.16215 0.3874,-2.19517 0.3874,-1.16216 1.8078,-2.32431 1.4204,-1.29128 3.8739,-1.42041 -4.6486,-4.77773 -13.8167,-4.77773 -6.5856,0 -12.0089,6.19814 -5.4234,6.19815 -5.4234,20.2731 0,7.36029 1.8078,12.78367 1.8078,5.42338 4.7777,8.26419 2.97,2.71169 5.8108,4.00297 2.9699,1.29128 5.8107,1.29128 12.6546,0 16.9158,-13.55844 0.3874,-1.29128 1.6787,-1.29128 1.6786,0 1.6786,1.29128 0,0.64564 -0.5165,2.3243 -0.5165,1.54954 -2.066,4.1321 -1.5496,2.58256 -3.8739,4.90687 -2.1951,2.19517 -6.1981,3.87384 -3.8739,1.54953 -8.7807,1.54953 -11.3633,0 -19.6275,-8.52245 z m 48.9393,7.10204 v -4.00296 q 6.8438,0 8.3934,-0.77477 1.6786,-0.9039 1.6786,-5.036 v -34.6063 q 0,-4.77774 -1.6786,-5.93989 -1.6787,-1.29128 -8.3934,-1.29128 v -4.00297 l 18.2071,-1.42041 v 13.55845 q 6.069,-13.55845 19.1109,-13.55845 9.6846,0 13.5585,4.77774 2.8408,3.2282 3.3573,6.84379 0.6456,3.61558 0.6456,12.9128 v 24.66344 q 0.1292,2.71169 2.1952,3.35733 2.0661,0.51652 7.8768,0.51652 v 4.00296 q -13.171,-0.38738 -14.4623,-0.38738 -1.033,0 -14.5915,0.38738 v -4.00296 q 6.8438,0 8.3933,-0.77477 1.6787,-0.9039 1.6787,-5.036 v -30.08682 q 0,-6.58553 -2.066,-10.45937 -1.937,-3.87384 -7.4895,-3.87384 -6.7146,0 -12.138,5.68163 -5.2942,5.55251 -5.2942,14.97885 v 23.75955 q 0,4.1321 1.5495,5.036 1.6787,0.77477 8.5224,0.77477 v 4.00296 q -13.171,-0.38738 -14.4623,-0.38738 -1.033,0 -14.5915,0.38738 z m 79.6718,-6.97291 q -8.5224,-8.39332 -8.5224,-20.66048 0,-12.26716 8.2642,-21.17699 8.3933,-9.03896 20.4022,-9.03896 11.7506,0 20.144,8.90983 8.3933,8.90983 8.3933,21.30612 0,12.13803 -8.5225,20.66048 -8.3933,8.39332 -20.1439,8.39332 -11.4924,0 -20.0149,-8.39332 z m 2.1952,-21.6935 q 0,12.52541 3.2282,18.20704 5.036,8.65158 14.7206,8.65158 4.7777,0 8.7807,-2.58256 4.003,-2.58256 6.1981,-6.97291 2.8409,-5.68163 2.8409,-17.30315 0,-12.39629 -3.3574,-17.9488 -5.036,-8.39332 -14.5914,-8.39332 -4.1321,0 -8.2642,2.19518 -4.003,2.19517 -6.4564,6.4564 -3.0991,5.68163 -3.0991,17.69054 z m 54.4918,28.66641 v -4.00296 q 6.8437,0 8.3933,-0.77477 1.6786,-0.9039 1.6786,-5.036 v -67.14656 q 0,-4.77773 -1.6786,-5.93989 -1.6787,-1.29128 -8.3933,-1.29128 v -4.00296 l 18.5944,-1.42041 v 79.8011 q 0,4.1321 1.5495,5.036 1.6787,0.77477 8.5225,0.77477 v 4.00296 q -1.5496,0 -4.9069,-0.12912 -3.2282,-0.12913 -5.6816,-0.12913 -2.3243,-0.12913 -3.7447,-0.12913 -1.5496,0 -14.3332,0.38738 z m 43.645,-6.97291 q -8.5224,-8.39332 -8.5224,-20.66048 0,-12.26716 8.2642,-21.17699 8.3933,-9.03896 20.4022,-9.03896 11.7507,0 20.144,8.90983 8.3933,8.90983 8.3933,21.30612 0,12.13803 -8.5224,20.66048 -8.3934,8.39332 -20.144,8.39332 -11.4924,0 -20.0149,-8.39332 z m 2.1952,-21.6935 q 0,12.52541 3.2282,18.20704 5.036,8.65158 14.7206,8.65158 4.7778,0 8.7807,-2.58256 4.003,-2.58256 6.1982,-6.97291 2.8408,-5.68163 2.8408,-17.30315 0,-12.39629 -3.3573,-17.9488 -5.036,-8.39332 -14.5915,-8.39332 -4.1321,0 -8.2642,2.19518 -4.003,2.19517 -6.4564,6.4564 -3.0991,5.68163 -3.0991,17.69054 z m 53.8462,38.86753 q 0,-4.1321 3.099,-7.74768 3.2282,-3.61559 8.7807,-5.16512 -5.6816,-3.61559 -5.6816,-11.4924 0,-6.06901 4.003,-10.71762 -6.0691,-5.03599 -6.0691,-13.30019 0,-7.61855 6.0691,-13.17105 6.069,-5.68164 14.8497,-5.68164 7.7477,0 13.6876,4.64861 6.1981,-6.06901 13.6875,-6.06901 3.3574,0 4.9069,2.06604 1.6787,2.06605 1.6787,4.26123 0,1.93692 -1.2913,2.96994 -1.1622,0.9039 -2.4535,0.9039 -1.5495,0 -2.7116,-1.03302 -1.0331,-1.03303 -1.0331,-2.71169 0,-2.71169 2.0661,-3.48646 -0.3874,-0.12913 -1.2913,-0.12913 -6.3273,0 -11.6215,5.03599 5.2942,4.90687 5.2942,12.52542 0,7.61855 -6.069,13.30019 -6.069,5.5525 -14.8497,5.5525 -7.2312,0 -12.7837,-4.00297 -2.1952,2.58256 -2.1952,6.06902 0,3.2282 1.937,5.81076 1.9369,2.45343 4.9068,2.84081 0.9039,0.12913 9.6846,0.12913 5.1651,0 8.006,0.12913 2.8408,0.12913 6.8437,1.03302 4.1321,0.77477 7.3603,2.45344 8.3934,4.64861 8.3934,14.72059 0,7.3603 -8.5225,12.0089 -8.3933,4.64861 -20.144,4.64861 -11.8797,0 -20.2731,-4.77773 -8.2641,-4.64861 -8.2641,-11.62152 z m 6.7146,0 q 0,5.29424 6.1982,9.29721 6.3272,4.1321 15.7536,4.1321 9.2972,0 15.4953,-4.00297 6.3273,-4.00297 6.3273,-9.42634 0,-3.87384 -2.1952,-6.32728 -2.1951,-2.45343 -6.7146,-3.48645 -4.5195,-0.9039 -7.7477,-1.03303 -3.0991,-0.25825 -8.9098,-0.25825 h -7.6186 q -4.3903,0.25825 -7.4894,3.48645 -3.0991,3.2282 -3.0991,7.61856 z m 7.102,-48.29388 q 0,15.88275 11.2342,15.88275 5.6816,0 9.1681,-5.16512 2.066,-3.48646 2.066,-10.84676 0,-15.88274 -11.2341,-15.88274 -5.6816,0 -9.1681,5.16512 -2.0661,3.48646 -2.0661,10.84675 z m 51.3927,38.09276 v -4.00296 q 6.8438,0 8.3934,-0.77477 1.6786,-0.9039 1.6786,-5.036 v -34.73543 q 0,-4.77773 -1.6786,-5.93989 -1.5496,-1.16215 -7.8768,-1.16215 v -4.00297 l 18.0779,-1.42041 v 47.38998 q 0,3.87384 1.2913,4.77774 1.4204,0.9039 7.7476,0.9039 v 4.00296 q -13.171,-0.38738 -13.4293,-0.38738 -1.8078,0 -14.2041,0.38738 z m 5.4234,-79.54285 q 0,-2.58256 1.9369,-4.64861 2.0661,-2.19517 4.9069,-2.19517 2.8408,0 4.7777,1.93692 2.0661,1.93692 2.0661,4.90686 0,2.96995 -2.0661,4.90687 -1.9369,1.93692 -4.7777,1.93692 -2.9699,0 -4.9069,-2.06605 -1.9369,-2.06605 -1.9369,-4.77774 z m 29.6993,51.13469 q 0,-12.13803 7.7476,-20.78961 7.8768,-8.65157 19.111,-8.65157 11.3632,0 17.174,7.36029 5.9399,7.3603 5.9399,17.9488 0,1.93692 -0.5165,2.3243 -0.5165,0.38738 -2.7117,0.38738 h -36.0267 q 0,13.17106 3.8738,19.3692 5.4234,8.65158 14.5915,8.65158 1.2913,0 2.7117,-0.25825 1.5495,-0.25826 4.6486,-1.29128 3.0991,-1.16216 5.8107,-4.1321 2.7117,-2.96995 4.2613,-7.61855 0.3873,-1.8078 1.6786,-1.8078 1.6787,0 1.6787,1.54954 0,1.16215 -1.2913,3.74471 -1.1621,2.45343 -3.4864,5.55251 -2.3243,2.96994 -6.8438,5.29425 -4.5195,2.19517 -9.9429,2.19517 -11.3632,0 -19.8857,-8.52245 -8.5224,-8.65157 -8.5224,-21.30612 z m 10.8467,-4.13209 h 30.6033 q 0,-2.71169 -0.5165,-5.68164 -0.3874,-3.09907 -1.8078,-7.23116 -1.2912,-4.26123 -4.5194,-6.84379 -3.0991,-2.71169 -7.7477,-2.71169 -2.0661,0 -4.3904,0.9039 -2.1951,0.90389 -4.9068,3.09907 -2.7117,2.06605 -4.6486,6.97291 -1.8078,4.77774 -2.0661,11.4924 z m 90.1309,32.54025 v -4.00296 h 3.0991 q 6.9729,0 8.5224,-1.16216 1.6787,-1.16215 1.6787,-4.90686 v -67.66308 q 0,-3.74471 -1.6787,-4.90686 -1.5495,-1.16215 -8.5224,-1.16215 h -3.0991 v -4.00297 h 72.6991 l 3.6156,29.0538 h -3.2282 q -0.9039,-7.3603 -2.0661,-11.62152 -1.1621,-4.26122 -4.0029,-7.48942 -2.7117,-3.35733 -7.3603,-4.64861 -4.5195,-1.29128 -11.8798,-1.29128 h -16.6575 q -4.3904,0 -5.4234,0.90389 -0.9039,0.9039 -0.9039,4.26123 v 30.99072 h 11.6215 q 8.9099,0 11.3633,-3.09907 2.5825,-3.09908 2.5825,-12.00891 h 3.2282 v 34.21892 h -3.2282 q 0,-8.7807 -2.5825,-11.87977 -2.4534,-3.2282 -11.3633,-3.2282 h -11.6215 v 34.47717 q 0,3.35733 0.9039,4.26123 1.033,0.9039 5.4234,0.9039 h 17.174 q 5.5525,0 9.5555,-0.64564 4.1321,-0.77477 6.9729,-2.58257 2.8408,-1.80779 4.7777,-3.87384 1.9369,-2.06604 3.2282,-5.81076 1.4204,-3.74471 2.1952,-7.23116 0.7748,-3.48646 1.6787,-9.16809 h 3.2282 l -5.4234,33.31502 z m 87.6777,0 v -4.00296 q 6.8438,0 8.3933,-0.77477 1.6787,-0.9039 1.6787,-5.036 v -34.6063 q 0,-4.77774 -1.6787,-5.93989 -1.6786,-1.29128 -8.3933,-1.29128 v -4.00297 l 18.2071,-1.42041 v 13.55845 q 6.069,-13.55845 19.1109,-13.55845 15.108,0 17.174,12.65455 2.1952,-4.90686 6.8438,-8.78071 4.6486,-3.87384 11.8798,-3.87384 9.6846,0 13.5584,4.77774 2.8409,3.2282 3.3574,6.84379 0.6456,3.61558 0.6456,12.9128 v 24.66344 q 0.1291,2.71169 2.1952,3.35733 2.066,0.51652 7.8768,0.51652 v 4.00296 q -13.1711,-0.38738 -14.4623,-0.38738 -1.0331,0 -14.5915,0.38738 v -4.00296 q 6.8438,0 8.3933,-0.77477 1.6787,-0.9039 1.6787,-5.036 v -30.08682 q 0,-6.58553 -2.0661,-10.45937 -1.9369,-3.87384 -7.4894,-3.87384 -6.7147,0 -12.138,5.68163 -5.2943,5.55251 -5.2943,14.97885 v 23.75955 q 0,4.1321 1.5496,5.036 1.6786,0.77477 8.5224,0.77477 v 4.00296 q -13.171,-0.38738 -14.4623,-0.38738 -1.0331,0 -14.5915,0.38738 v -4.00296 q 6.8438,0 8.3933,-0.77477 1.6787,-0.9039 1.6787,-5.036 v -30.08682 q 0,-6.58553 -2.0661,-10.45937 -1.9369,-3.87384 -7.4894,-3.87384 -6.7146,0 -12.138,5.68163 -5.2943,5.55251 -5.2943,14.97885 v 23.75955 q 0,4.1321 1.5496,5.036 1.6786,0.77477 8.5224,0.77477 v 4.00296 q -13.171,-0.38738 -14.4623,-0.38738 -1.033,0 -14.5915,0.38738 z m 107.0469,-28.40816 q 0,-12.13803 7.7477,-20.78961 7.8768,-8.65157 19.1109,-8.65157 11.3633,0 17.1741,7.36029 5.9399,7.3603 5.9399,17.9488 0,1.93692 -0.5165,2.3243 -0.5166,0.38738 -2.7117,0.38738 h -36.0268 q 0,13.17106 3.8739,19.3692 5.4234,8.65158 14.5915,8.65158 1.2912,0 2.7116,-0.25825 1.5496,-0.25826 4.6486,-1.29128 3.0991,-1.16216 5.8108,-4.1321 2.7117,-2.96995 4.2612,-7.61855 0.3874,-1.8078 1.6787,-1.8078 1.6787,0 1.6787,1.54954 0,1.16215 -1.2913,3.74471 -1.1622,2.45343 -3.4865,5.55251 -2.3243,2.96994 -6.8438,5.29425 -4.5194,2.19517 -9.9428,2.19517 -11.3633,0 -19.8857,-8.52245 -8.5225,-8.65157 -8.5225,-21.30612 z m 10.8468,-4.13209 h 30.6033 q 0,-2.71169 -0.5165,-5.68164 -0.3874,-3.09907 -1.8078,-7.23116 -1.2913,-4.26123 -4.5195,-6.84379 -3.099,-2.71169 -7.7477,-2.71169 -2.066,0 -4.3903,0.9039 -2.1952,0.90389 -4.9069,3.09907 -2.7117,2.06605 -4.6486,6.97291 -1.8078,4.77774 -2.066,11.4924 z m 46.4859,32.54025 v -4.00296 q 6.8437,0 8.3933,-0.77477 1.6786,-0.9039 1.6786,-5.036 v -34.6063 q 0,-4.77774 -1.6786,-5.93989 -1.6787,-1.29128 -8.3933,-1.29128 v -4.00297 l 17.9488,-1.42041 v 14.20409 q 1.8078,-5.55251 5.6816,-9.81373 3.8738,-4.39036 10.2011,-4.39036 4.1321,0 6.8438,2.32431 2.7117,2.3243 2.7117,5.5525 0,2.84082 -1.8078,4.26123 -1.6787,1.42041 -3.7447,1.42041 -2.3243,0 -4.003,-1.42041 -1.5495,-1.54954 -1.5495,-4.1321 0,-1.54954 0.6456,-2.71169 0.7748,-1.29128 1.2913,-1.67866 0.6456,-0.51651 1.033,-0.64564 -0.2582,-0.12913 -1.4204,-0.12913 -7.102,0 -11.2341,7.10204 -4.003,7.10204 -4.003,17.17403 v 19.88571 q 0,3.74471 1.5495,4.90686 1.5496,1.16216 8.2642,1.16216 h 2.7117 v 4.00296 q -5.1651,-0.38738 -16.3992,-0.38738 -1.5496,0 -4.003,0.12913 -2.4534,0 -5.6816,0.12913 -3.2282,0.12912 -5.036,0.12912 z m 50.4889,10.20112 q 0,-4.1321 3.099,-7.74768 3.2282,-3.61559 8.7807,-5.16512 -5.6816,-3.61559 -5.6816,-11.4924 0,-6.06901 4.003,-10.71762 -6.069,-5.03599 -6.069,-13.30019 0,-7.61855 6.069,-13.17105 6.069,-5.68164 14.8497,-5.68164 7.7477,0 13.6876,4.64861 6.1981,-6.06901 13.6875,-6.06901 3.3574,0 4.9069,2.06604 1.6787,2.06605 1.6787,4.26123 0,1.93692 -1.2913,2.96994 -1.1622,0.9039 -2.4535,0.9039 -1.5495,0 -2.7116,-1.03302 -1.0331,-1.03303 -1.0331,-2.71169 0,-2.71169 2.0661,-3.48646 -0.3874,-0.12913 -1.2913,-0.12913 -6.3273,0 -11.6215,5.03599 5.2942,4.90687 5.2942,12.52542 0,7.61855 -6.069,13.30019 -6.069,5.5525 -14.8497,5.5525 -7.2312,0 -12.7837,-4.00297 -2.1952,2.58256 -2.1952,6.06902 0,3.2282 1.937,5.81076 1.9369,2.45343 4.9068,2.84081 0.9039,0.12913 9.6846,0.12913 5.1651,0 8.006,0.12913 2.8408,0.12913 6.8437,1.03302 4.1321,0.77477 7.3603,2.45344 8.3934,4.64861 8.3934,14.72059 0,7.3603 -8.5225,12.0089 -8.3933,4.64861 -20.144,4.64861 -11.8797,0 -20.2731,-4.77773 -8.2641,-4.64861 -8.2641,-11.62152 z m 6.7146,0 q 0,5.29424 6.1982,9.29721 6.3272,4.1321 15.7536,4.1321 9.2972,0 15.4953,-4.00297 6.3273,-4.00297 6.3273,-9.42634 0,-3.87384 -2.1952,-6.32728 -2.1951,-2.45343 -6.7146,-3.48645 -4.5195,-0.9039 -7.7477,-1.03303 -3.0991,-0.25825 -8.9098,-0.25825 h -7.6186 q -4.3903,0.25825 -7.4894,3.48645 -3.0991,3.2282 -3.0991,7.61856 z m 7.1021,-48.29388 q 0,15.88275 11.2341,15.88275 5.6816,0 9.1681,-5.16512 2.066,-3.48646 2.066,-10.84676 0,-15.88274 -11.2341,-15.88274 -5.6816,0 -9.1681,5.16512 -2.066,3.48646 -2.066,10.84675 z m 50.747,9.6846 q 0,-12.13803 7.7477,-20.78961 7.8768,-8.65157 19.111,-8.65157 11.3632,0 17.174,7.36029 5.9399,7.3603 5.9399,17.9488 0,1.93692 -0.5165,2.3243 -0.5165,0.38738 -2.7117,0.38738 h -36.0267 q 0,13.17106 3.8738,19.3692 5.4234,8.65158 14.5915,8.65158 1.2912,0 2.7117,-0.25825 1.5495,-0.25826 4.6486,-1.29128 3.099,-1.16216 5.8107,-4.1321 2.7117,-2.96995 4.2612,-7.61855 0.3874,-1.8078 1.6787,-1.8078 1.6787,0 1.6787,1.54954 0,1.16215 -1.2913,3.74471 -1.1622,2.45343 -3.4865,5.55251 -2.3243,2.96994 -6.8437,5.29425 -4.5195,2.19517 -9.9429,2.19517 -11.3633,0 -19.8857,-8.52245 -8.5225,-8.65157 -8.5225,-21.30612 z m 10.8468,-4.13209 h 30.6033 q 0,-2.71169 -0.5165,-5.68164 -0.3874,-3.09907 -1.8078,-7.23116 -1.2913,-4.26123 -4.5195,-6.84379 -3.099,-2.71169 -7.7476,-2.71169 -2.0661,0 -4.3904,0.9039 -2.1952,0.90389 -4.9069,3.09907 -2.7116,2.06605 -4.6486,6.97291 -1.8078,4.77774 -2.066,11.4924 z m 47.0023,32.54025 v -4.00296 q 6.8438,0 8.3934,-0.77477 1.6786,-0.9039 1.6786,-5.036 v -34.6063 q 0,-4.77774 -1.6786,-5.93989 -1.6787,-1.29128 -8.3934,-1.29128 v -4.00297 l 18.2071,-1.42041 v 13.55845 q 6.069,-13.55845 19.1109,-13.55845 9.6846,0 13.5585,4.77774 2.8408,3.2282 3.3573,6.84379 0.6456,3.61558 0.6456,12.9128 v 24.66344 q 0.1292,2.71169 2.1952,3.35733 2.0661,0.51652 7.8768,0.51652 v 4.00296 q -13.171,-0.38738 -14.4623,-0.38738 -1.033,0 -14.5915,0.38738 v -4.00296 q 6.8438,0 8.3933,-0.77477 1.6787,-0.9039 1.6787,-5.036 v -30.08682 q 0,-6.58553 -2.066,-10.45937 -1.937,-3.87384 -7.4895,-3.87384 -6.7146,0 -12.138,5.68163 -5.2943,5.55251 -5.2943,14.97885 v 23.75955 q 0,4.1321 1.5496,5.036 1.6786,0.77477 8.5224,0.77477 v 4.00296 q -13.171,-0.38738 -14.4623,-0.38738 -1.033,0 -14.5915,0.38738 z m 66.3714,-51.6512 v -2.84082 q 5.9399,-0.25825 9.8137,-4.39035 4.003,-4.26122 5.2943,-9.42634 1.4204,-5.16512 1.5495,-11.10501 h 3.2282 v 23.75955 h 18.4653 v 4.00297 h -18.4653 v 35.89759 q 0,13.94582 8.6516,13.94582 3.7447,0 6.1981,-3.74471 2.4535,-3.87384 2.4535,-10.71763 v -7.10204 h 3.2282 v 7.3603 q 0,6.97291 -3.2282,12.26716 -3.2282,5.16512 -9.5555,5.16512 -2.3243,0 -4.6486,-0.64564 -2.3243,-0.51651 -5.2942,-2.06605 -2.97,-1.54953 -4.9069,-5.29425 -1.8078,-3.87384 -1.8078,-9.42634 v -35.63933 z m 51.9092,51.6512 v -4.00296 q 6.8438,0 8.3934,-0.77477 1.6786,-0.9039 1.6786,-5.036 v -34.73543 q 0,-4.77773 -1.6786,-5.93989 -1.5496,-1.16215 -7.8768,-1.16215 v -4.00297 l 18.0779,-1.42041 v 47.38998 q 0,3.87384 1.2913,4.77774 1.4204,0.9039 7.7476,0.9039 v 4.00296 q -13.171,-0.38738 -13.4293,-0.38738 -1.8078,0 -14.2041,0.38738 z m 5.4234,-79.54285 q 0,-2.58256 1.9369,-4.64861 2.0661,-2.19517 4.9069,-2.19517 2.8408,0 4.7777,1.93692 2.0661,1.93692 2.0661,4.90686 0,2.96995 -2.0661,4.90687 -1.9369,1.93692 -4.7777,1.93692 -2.9699,0 -4.9069,-2.06605 -1.9369,-2.06605 -1.9369,-4.77774 z"
     id="path3" /></g><path
   style="-inkscape-font-specification:'CMU Serif, Normal';fill:#ffffff;stroke-width:32.3102"
   d="m -8.8500977e-7,220.77169 q 0,-78.06428 53.24914588500977,-132.864376 53.249145,-54.800091 126.660585,-54.800091 22.74721,0 42.90951,8.271712 20.1623,8.271711 29.46797,15.509459 9.30568,7.237748 22.74721,20.67928 l 25.8491,-38.256667 q 4.13586,-6.203784 8.27171,-6.203784 4.13586,0 4.65284,2.58491 1.03396,2.067928 1.03396,9.822657 v 122.52473 q 0,8.27172 -1.03396,10.33964 -1.03396,2.06793 -7.23775,2.06793 -5.16982,0 -6.20378,-1.55094 -1.03397,-1.55095 -2.06793,-7.23775 -7.75473,-55.83406 -38.77365,-88.920906 -31.01892,-33.60383 -73.92842,-33.60383 -12.40757,0 -26.36609,3.101892 -13.44153,2.58491 -33.60383,13.441532 Q 105.98131,76.016728 90.471848,93.594116 75.47937,111.1715 64.105766,144.25835 53.249145,177.3452 53.249145,221.28867 q 0,43.42649 10.856621,77.03032 11.373604,33.08684 26.366082,50.66423 15.509462,17.06041 35.154772,27.91703 20.1623,10.33964 34.12082,13.44153 13.95851,2.58491 26.36608,2.58491 44.46045,0 78.58126,-31.5359 34.12081,-31.5359 37.2227,-84.78505 0.51699,-2.58491 0.51699,-3.61887 0,-1.03397 0.51698,-2.06793 0.51698,-1.55095 1.55094,-2.06793 1.55095,-0.51698 3.61888,-0.51698 6.72076,0 6.72076,8.78869 0,49.11329 -37.73968,90.47185 -37.73969,41.35856 -97.19262,41.35856 -73.41144,0 -126.660585,-54.28311 Q -8.8500977e-7,299.86993 -8.8500977e-7,220.77169 Z M 358.78457,283.84349 q 0,-48.59631 31.01892,-83.2341 31.53591,-34.63779 76.51334,-34.63779 45.49441,0 68.7586,29.46797 23.78118,29.46797 23.78118,71.8605 0,7.75473 -2.06793,9.30567 -2.06793,1.55095 -10.85662,1.55095 H 401.69408 q 0,52.73216 15.50946,77.5473 21.71324,34.63779 58.41896,34.63779 5.16982,0 10.85663,-1.03396 6.20378,-1.03397 18.61135,-5.16982 12.40757,-4.65284 23.26419,-16.54343 10.85662,-11.89058 17.0604,-30.50193 1.55095,-7.23775 6.72077,-7.23775 6.72077,0 6.72077,6.20378 0,4.65284 -5.16982,14.99248 -4.65284,9.82266 -13.95852,22.23023 -9.30567,11.89058 -27.40004,21.19626 -18.09437,8.78869 -39.80762,8.78869 -45.49441,0 -79.61522,-34.12081 -34.12082,-34.63779 -34.12082,-85.30203 z m 43.42649,-16.54342 h 122.52473 q 0,-10.85663 -2.06792,-22.74721 -1.55095,-12.40757 -7.23775,-28.95099 -5.16982,-17.06041 -18.09437,-27.40005 -12.40757,-10.85662 -31.01892,-10.85662 -8.27171,0 -17.57739,3.61887 -8.78869,3.61888 -19.64531,12.40757 -10.85663,8.27171 -18.61136,27.91703 -7.23774,19.12833 -8.27171,46.0114 z m 189.73151,130.27946 v -16.02644 h 12.40757 q 27.91703,0 34.12081,-4.65284 6.72077,-4.65284 6.72077,-19.64532 V 84.805422 q 0,-14.992478 -6.72077,-19.645316 -6.20378,-4.652838 -34.12081,-4.652838 H 591.94257 V 44.480826 h 182.49465 q 52.21518,0 86.85297,28.950992 35.15478,28.434012 35.15478,67.207662 0,38.25667 -35.67176,66.17369 -35.15478,27.40005 -82.20014,27.40005 h -87.36996 v 123.04171 q 0,14.99248 6.20379,19.64532 6.72076,4.65284 34.63779,4.65284 h 12.40757 v 16.02644 q -18.09437,-1.55095 -76.51334,-1.55095 -57.90198,0 -75.99635,1.55095 z m 97.7096,-176.80784 h 71.34351 q 23.26419,0 39.80762,-6.20379 17.0604,-6.72076 24.81513,-14.47549 7.75473,-8.27172 11.89059,-21.19626 4.65284,-12.92455 5.16982,-20.1623 0.51698,-7.23775 0.51698,-18.09437 0,-11.37361 -0.51698,-18.61135 -0.51698,-7.23775 -5.16982,-20.1623 Q 833.37316,88.941278 825.61843,81.186548 817.8637,72.914836 800.8033,66.711052 784.25987,60.507268 760.99568,60.507268 h -46.01139 q -17.57739,0 -21.71325,3.618874 -3.61887,3.618874 -3.61887,17.060406 z m 254.35432,-56.86802 9.82266,-116.320952 h 315.87595 l 9.8227,116.320952 h -12.9245 q -2.068,-23.26419 -4.1359,-36.70572 -1.5509,-13.44154 -6.2038,-25.8491 -4.1358,-12.924554 -9.8226,-19.128338 -5.1699,-6.203784 -15.5095,-10.856622 -10.3396,-5.16982 -23.7812,-6.203784 -13.4415,-1.550946 -33.6038,-1.550946 -23.7812,0 -29.468,1.033964 -6.2038,1.550946 -7.7547,6.203784 -1.551,4.135856 -1.551,13.441532 v 272.44951 q 0,10.33964 2.068,14.4755 2.0679,4.13585 13.9585,7.23775 11.8906,3.10189 38.2567,3.10189 h 20.6792 v 16.02644 q -21.1962,-1.55095 -98.2265,-1.55095 -76.5134,0 -97.7096,1.55095 v -16.02644 h 20.6792 q 26.3661,0 38.2567,-3.10189 11.8906,-3.1019 13.9585,-7.23775 2.0679,-4.13586 2.0679,-14.4755 V 84.28844 q 0,-7.237748 -0.5169,-10.33964 -0.517,-3.101892 -3.1019,-5.686802 -2.068,-2.58491 -7.2378,-3.618874 -5.1698,-1.033964 -27.917,-1.033964 -20.1623,0 -33.6038,1.550946 -13.4416,1.033964 -23.7812,6.203784 -10.33964,4.652838 -16.02644,10.856622 -5.16982,6.203784 -9.82266,19.128338 -4.13586,12.40756 -6.20379,25.8491 -1.55094,13.44153 -3.61887,36.70572 z m 371.70911,233.67586 v -16.02644 h 12.4076 q 27.917,0 34.1208,-4.65284 6.7208,-4.65284 6.7208,-19.64532 V 86.356368 q 0,-14.992478 -6.7208,-19.645316 -6.2038,-4.652838 -34.1208,-4.652838 h -12.4076 V 46.031772 h 291.0609 l 14.4755,116.320948 h -12.9246 q -3.6189,-29.46797 -8.2717,-46.52838 -4.6528,-17.060404 -16.0264,-29.984954 -10.8567,-13.441532 -29.468,-18.611352 -18.0944,-5.16982 -47.5623,-5.16982 h -66.6907 q -17.5774,0 -21.7133,3.618874 -3.6188,3.618874 -3.6188,17.060406 V 206.81317 h 46.5283 q 35.6718,0 45.4945,-12.40757 10.3396,-12.40756 10.3396,-48.07932 h 12.9245 v 137.00023 h -12.9245 q 0,-35.15478 -10.3396,-47.56235 -9.8227,-12.92455 -45.4945,-12.92455 h -46.5283 v 138.0342 q 0,13.44153 3.6188,17.0604 4.1359,3.61888 21.7133,3.61888 h 68.7586 q 22.2302,0 38.2566,-2.58491 16.5435,-3.10189 27.9171,-10.33964 11.3736,-7.23775 19.1283,-15.50946 7.7547,-8.27171 12.9246,-23.26419 5.6868,-14.99248 8.7887,-28.95099 3.1018,-13.95852 6.7207,-36.70573 h 12.9246 l -21.7133,133.38136 z"
   id="text89"
   aria-label="CePTE" /><path
   style="fill:#ffffff;stroke:#009246;stroke-width:10.1415;stroke-linecap:round;stroke-linejoin:round;stroke-dasharray:none;stroke-opacity:1"
   d="M 1665.4707,5.0707502 V 436.9832"
   id="path90" /></svg>
